<svg width="24" height="24" viewBox="0 0 24 24" fill="none" xmlns="http://www.w3.org/2000/svg">
<path fill-rule="evenodd" clip-rule="evenodd" d="M18.2499 16.0217C19.1392 16.0217 19.8517 15.2935 19.8517 14.3913L19.857 11.1304C19.857 10.2283 19.1392 9.5 18.2499 9.5C17.3606 9.5 16.6427 10.2283 16.6427 11.1304V14.3913C16.6427 15.2935 17.3606 16.0217 18.2499 16.0217ZM15.5714 21.9999H16.6428V20.913H15.5714V21.9999ZM18.7859 21.9999H17.7145V20.913H18.7859V21.9999ZM19.8573 21.9999H20.9287V20.913H19.8573V21.9999ZM21.0893 14.3914H22C22 16.2446 20.5429 17.7772 18.7857 18.0435V19.8261H17.7143V18.0435C15.9571 17.7772 14.5 16.2446 14.5 14.3914H15.4107C15.4107 16.0218 16.7714 17.1631 18.25 17.1631C19.7286 17.1631 21.0893 16.0218 21.0893 14.3914Z" fill="#F2C94C"/>
<path fill-rule="evenodd" clip-rule="evenodd" d="M3.5625 2H12.9375C13.7969 2 14.5 2.70312 14.5 3.5625V16.0625C14.5 16.9219 13.7969 17.625 12.9375 17.625H3.5625C2.70312 17.625 2 16.9219 2 16.0625V3.5625C2 2.70312 2.70312 2 3.5625 2ZM7.57292 3.66667H3.66667V9.91667L5.61979 8.74479L7.57292 9.91667V3.66667Z" fill="#F2C94C"/>
</svg>
